<?xml version="1.0" standalone="no"?>
<!DOCTYPE svg PUBLIC "-//W3C//DTD SVG 20010904//EN"
 "http://www.w3.org/TR/2001/REC-SVG-20010904/DTD/svg10.dtd">
<svg version="1.0" xmlns="http://www.w3.org/2000/svg"
 width="2048.000000pt" height="512.000000pt" viewBox="0 0 2048.000000 512.000000"
 preserveAspectRatio="xMidYMid meet">
<metadata>
Created by potrace 1.16, written by Peter Selinger 2001-2019
</metadata>
<g transform="translate(0.000000,512.000000) scale(0.100000,-0.100000)"
fill="#fff" stroke="none">
<path d="M8303 3395 c-103 -29 -178 -85 -218 -164 -26 -51 -30 -137 -11 -205
32 -109 119 -170 325 -226 185 -50 223 -72 241 -142 21 -75 -20 -148 -102
-182 -51 -22 -153 -20 -203 3 -52 24 -68 43 -105 123 -16 37 -40 76 -52 87
-32 31 -74 27 -110 -10 -28 -28 -30 -34 -25 -79 10 -87 64 -172 141 -225 78
-52 148 -68 280 -63 131 5 200 28 268 87 66 59 99 127 105 220 14 193 -68 274
-357 356 -67 20 -137 42 -155 51 -77 36 -104 104 -63 163 34 51 80 71 161 71
90 0 127 -17 163 -74 74 -118 81 -126 122 -126 120 0 114 173 -8 270 -65 52
-132 72 -245 76 -68 3 -117 -1 -152 -11z"/>
<path d="M12029 3382 c-54 -48 -60 -26 204 -782 73 -212 86 -240 123 -269 40
-31 123 -29 162 4 38 32 54 71 223 555 154 442 156 454 102 497 -38 31 -87 30
-117 -2 -15 -16 -55 -127 -125 -347 -56 -178 -114 -360 -129 -405 -14 -46 -29
-83 -32 -83 -3 0 -56 161 -118 358 -124 393 -156 478 -183 492 -33 18 -77 11
-110 -18z"/>
<path d="M13439 3381 l-29 -29 0 -490 0 -490 26 -31 c21 -26 33 -31 69 -31 36
0 48 5 69 31 l27 31 -3 495 -3 495 -28 24 c-40 34 -90 32 -128 -5z"/>
<path d="M14520 3396 c-88 -25 -142 -56 -206 -120 -105 -105 -154 -238 -154
-421 0 -268 120 -463 321 -526 75 -23 232 -26 301 -4 150 45 269 186 272 322
1 48 -2 57 -27 79 -28 24 -60 30 -92 18 -9 -4 -36 -49 -61 -101 -35 -73 -54
-100 -86 -123 -107 -78 -266 -61 -347 37 -60 73 -75 131 -75 293 -1 128 2 152
22 201 33 83 72 130 132 163 43 24 65 29 119 29 106 0 164 -39 232 -155 42
-71 61 -88 104 -88 43 0 75 41 75 96 0 125 -141 266 -301 303 -59 14 -174 12
-229 -3z"/>
<path d="M9429 3375 c-15 -8 -32 -29 -38 -46 -7 -22 -11 -178 -11 -478 0 -425
1 -448 20 -478 30 -50 63 -54 406 -51 l306 3 24 28 c32 38 31 72 -5 108 l-29
29 -261 0 -261 0 0 155 0 155 219 0 c225 0 273 7 291 40 17 32 11 70 -15 95
l-24 25 -236 0 -235 0 0 135 0 135 245 0 c196 0 252 3 274 15 48 24 56 81 16
120 l-24 25 -318 0 c-257 -1 -323 -4 -344 -15z"/>
<path d="M10725 3368 c-14 -13 -30 -41 -35 -63 -5 -22 -10 -232 -10 -467 0
-371 2 -433 16 -468 9 -22 25 -45 35 -50 33 -18 86 -11 116 14 l28 24 3 211
c3 190 5 211 20 212 170 11 204 -15 342 -257 109 -192 128 -214 186 -214 63 0
99 35 91 91 -12 89 -106 249 -203 346 l-62 61 57 21 c66 24 113 57 147 102 32
44 44 90 44 176 0 95 -42 180 -112 229 -69 47 -120 54 -393 54 -239 0 -244 0
-270 -22z m503 -152 c46 -24 72 -71 72 -129 0 -117 -55 -149 -272 -155 l-148
-4 0 157 0 158 158 -5 c122 -4 164 -8 190 -22z"/>
<path d="M15639 3361 l-29 -29 0 -466 c0 -309 4 -473 11 -489 23 -50 33 -52
354 -55 165 -2 315 -1 333 3 18 3 42 15 53 26 25 25 25 80 0 110 l-19 24 -271
3 -271 3 0 154 0 155 228 0 c246 0 267 4 290 54 18 35 0 83 -35 97 -13 5 -128
9 -254 9 l-229 0 0 135 0 134 260 3 c253 3 260 4 282 25 31 31 30 89 -1 114
-22 18 -46 19 -348 19 l-325 0 -29 -29z"/>
<path d="M4051 3366 c-49 -27 -67 -109 -35 -155 28 -39 73 -51 198 -51 121 0
157 8 193 42 49 46 35 131 -27 163 -39 20 -293 21 -329 1z"/>
<path d="M4698 3351 l-33 -29 -5 -379 c-3 -208 -9 -386 -13 -395 -20 -41 -58
-52 -180 -56 -65 -2 -133 -1 -152 2 -52 10 -91 55 -99 114 -17 131 -176 149
-217 24 -19 -56 -7 -182 22 -239 28 -54 86 -100 145 -113 21 -5 145 -10 275
-10 273 0 313 7 371 67 69 71 68 64 68 538 0 294 -3 433 -11 448 -33 64 -116
77 -171 28z"/>
<path d="M5143 3356 l-28 -24 -5 -478 c-3 -305 -1 -488 5 -508 6 -17 26 -41
45 -54 45 -31 92 -24 135 18 l30 30 3 410 3 410 185 0 186 0 34 -34 34 -34 0
-256 c0 -171 -4 -263 -12 -280 -15 -34 -46 -53 -99 -61 -92 -14 -134 -88 -93
-166 20 -41 68 -59 152 -59 130 0 212 44 253 135 17 36 19 74 19 423 0 417 -1
425 -58 485 -63 66 -67 67 -431 67 l-330 0 -28 -24z"/>
<path d="M6254 3346 l-34 -34 0 -484 c0 -530 -2 -511 60 -543 37 -19 63 -19
100 0 58 30 60 42 60 397 l0 322 143 -142 c140 -139 145 -142 187 -142 41 0
47 4 151 107 114 112 131 141 110 195 -22 57 -84 88 -139 67 -15 -5 -48 -31
-75 -57 l-47 -46 -198 197 c-196 195 -199 197 -241 197 -36 0 -49 -6 -77 -34z"/>
<path d="M7174 3370 c-12 -4 -31 -21 -43 -36 -21 -26 -21 -31 -21 -509 0 -471
0 -483 21 -508 11 -15 37 -32 58 -38 46 -14 83 0 115 44 21 28 21 37 21 501 0
515 0 512 -57 542 -30 16 -62 17 -94 4z"/>
<path d="M4035 1947 c-71 -71 -36 -151 75 -171 71 -13 103 -62 64 -100 -33
-34 -71 -32 -167 9 -14 6 -17 3 -14 -16 2 -15 16 -30 38 -41 68 -35 165 -15
193 41 38 72 10 115 -96 151 -68 23 -73 27 -76 57 -5 56 66 82 132 48 37 -20
43 -19 41 5 -2 33 -19 42 -89 47 -64 6 -66 5 -101 -30z"/>
<path d="M4904 1966 c-65 -28 -101 -110 -89 -202 12 -101 79 -159 172 -150 67
6 93 20 93 52 0 14 -3 24 -7 22 -57 -29 -90 -39 -118 -34 -78 15 -117 121 -79
216 27 68 95 88 167 50 l37 -20 0 25 c0 47 -106 71 -176 41z"/>
<path d="M6088 1964 c-35 -19 -48 -43 -48 -92 0 -50 27 -76 104 -96 64 -16 71
-20 80 -53 5 -17 1 -29 -18 -48 -30 -30 -65 -32 -125 -5 -54 25 -53 25 -49 -7
7 -58 153 -71 208 -18 24 23 30 37 30 72 0 58 -27 85 -103 102 -42 9 -62 19
-74 37 -15 24 -15 27 4 52 26 36 81 41 129 13 l34 -20 0 28 c0 24 -6 31 -31
40 -44 15 -109 13 -141 -5z"/>
<path d="M6940 1962 c-53 -29 -80 -83 -80 -165 0 -90 25 -141 83 -168 52 -23
94 -24 147 -3 31 13 40 21 40 40 0 29 -1 29 -50 4 -47 -24 -71 -25 -110 -5
-52 27 -78 106 -59 181 22 85 103 119 177 74 41 -25 42 -25 42 5 0 31 -27 46
-99 52 -43 3 -64 0 -91 -15z"/>
<path d="M7758 1973 c-10 -3 -18 -6 -18 -8 0 -3 25 -45 55 -95 54 -90 55 -91
55 -170 0 -79 0 -80 25 -80 24 0 25 2 25 77 0 75 1 77 59 174 33 54 57 100 53
103 -20 11 -53 -20 -91 -84 l-43 -72 -43 72 c-49 83 -54 88 -77 83z"/>
<path d="M8242 1960 c-56 -35 -66 -105 -19 -148 12 -11 42 -25 67 -32 66 -17
90 -36 90 -69 0 -16 -7 -35 -17 -42 -22 -19 -104 -16 -133 4 -33 23 -40 21
-40 -8 0 -31 26 -45 94 -52 85 -9 146 35 146 105 0 54 -23 78 -96 98 -88 24
-116 62 -74 104 25 25 74 26 123 1 l37 -19 0 28 c0 22 -6 30 -31 39 -49 17
-110 13 -147 -9z"/>
<path d="M9734 1970 c-30 -12 -64 -58 -64 -87 0 -51 27 -82 88 -99 75 -21 102
-39 102 -67 0 -35 -21 -57 -61 -63 -31 -5 -59 2 -122 34 -5 2 -7 -9 -5 -24 2
-24 10 -31 43 -42 82 -28 171 3 189 66 19 66 -8 104 -92 128 -67 19 -92 38
-92 70 0 48 68 68 137 39 45 -19 43 -19 43 9 0 18 -8 27 -31 35 -37 13 -105
13 -135 1z"/>
<path d="M10156 1965 c-41 -22 -55 -44 -56 -88 0 -48 31 -81 91 -97 71 -17 88
-28 95 -56 6 -22 2 -32 -20 -51 -33 -28 -67 -29 -125 -3 -24 11 -44 20 -45 20
-2 0 -1 -13 2 -29 3 -23 11 -31 42 -40 85 -25 162 -2 187 57 27 66 -9 124 -86
138 -63 12 -91 31 -91 64 0 53 72 78 130 45 36 -20 42 -18 38 12 -2 19 -10 29
-28 34 -44 12 -104 9 -134 -6z"/>
<path d="M11110 1957 c-51 -34 -72 -78 -73 -150 0 -34 5 -79 12 -99 33 -99
163 -129 245 -58 84 74 69 262 -24 312 -49 25 -119 24 -160 -5z m139 -33 c72
-51 67 -220 -8 -258 -47 -25 -79 -20 -116 17 -57 57 -56 176 0 233 29 29 89
32 124 8z"/>
<path d="M11475 1966 c-105 -46 -128 -225 -41 -312 40 -40 105 -53 168 -33 36
12 44 19 46 43 2 15 0 26 -5 24 -89 -45 -133 -46 -171 -5 -65 69 -49 215 27
247 37 15 96 8 121 -15 23 -21 30 -19 30 11 0 46 -106 70 -175 40z"/>
<path d="M12082 1960 c-100 -61 -95 -277 8 -332 44 -24 125 -20 163 8 95 69
87 276 -13 326 -47 24 -117 23 -158 -2z m150 -49 c30 -27 33 -34 36 -102 2
-61 -1 -80 -17 -107 -41 -65 -126 -66 -168 -3 -43 64 -25 203 30 229 41 20 85
14 119 -17z"/>
<path d="M12762 1960 c-70 -43 -95 -181 -49 -270 39 -76 126 -101 206 -60 105
53 110 266 9 328 -46 29 -121 29 -166 2z m150 -49 c30 -27 33 -34 36 -102 2
-61 -1 -80 -17 -107 -37 -58 -103 -68 -153 -23 -32 29 -33 31 -33 115 0 80 2
86 29 115 40 42 92 43 138 2z"/>
<path d="M13030 1967 c0 -7 19 -87 42 -179 42 -165 43 -168 70 -168 26 0 27 3
59 140 18 77 36 137 39 133 4 -5 17 -51 29 -103 43 -181 39 -170 69 -170 27 0
28 2 66 158 22 86 41 165 44 175 4 15 0 18 -19 15 -21 -3 -26 -14 -55 -136
-17 -73 -34 -135 -37 -138 -3 -3 -20 58 -38 135 -32 137 -34 141 -59 141 -25
0 -27 -4 -59 -142 -19 -79 -36 -136 -39 -128 -3 8 -19 71 -37 139 -26 104 -34
125 -53 132 -15 6 -22 5 -22 -4z"/>
<path d="M14469 1957 c-49 -33 -69 -79 -69 -162 0 -54 6 -79 23 -110 54 -96
194 -100 256 -9 36 53 41 163 9 223 -41 79 -146 107 -219 58z m139 -33 c56
-39 72 -161 29 -225 -43 -64 -121 -63 -170 2 -23 32 -27 130 -7 178 22 55 100
79 148 45z"/>
<path d="M15128 1964 c-35 -19 -48 -43 -48 -92 0 -51 27 -76 105 -96 86 -22
106 -56 60 -101 -29 -30 -65 -32 -124 -5 -54 25 -53 25 -49 -7 7 -58 153 -71
208 -18 24 23 30 37 30 72 0 58 -27 85 -103 102 -67 15 -96 45 -77 80 23 44
84 54 138 21 l32 -20 0 29 c0 24 -6 31 -31 40 -44 15 -109 13 -141 -5z"/>
<path d="M15580 1972 c-16 -2 -52 -32 -97 -80 l-72 -77 -1 78 c0 75 -1 77 -25
77 l-25 0 0 -175 0 -175 25 0 c24 0 25 2 25 68 0 69 12 105 28 87 5 -6 35 -43
67 -82 48 -61 62 -73 87 -73 l29 0 -61 78 c-84 106 -95 123 -84 131 22 17 137
141 133 144 -2 1 -15 1 -29 -1z"/>
<path d="M15668 1972 c-32 -4 -39 -32 -8 -32 19 0 20 -7 20 -145 0 -138 -1
-145 -20 -145 -11 0 -20 -7 -20 -15 0 -12 14 -15 70 -15 56 0 70 3 70 15 0 9
-9 15 -25 15 l-25 0 0 145 0 145 25 0 c15 0 25 6 25 14 0 15 -59 24 -112 18z"/>
<path d="M15902 1963 c-66 -32 -99 -121 -81 -216 12 -65 40 -102 94 -123 74
-28 175 -1 175 46 0 25 0 25 -53 -1 -80 -39 -143 -8 -167 82 -16 58 -2 119 36
157 39 39 80 42 138 11 43 -23 51 -20 42 15 -11 43 -120 61 -184 29z"/>
<path d="M4290 1795 c0 -168 1 -175 20 -175 18 0 20 7 20 65 l0 65 40 0 c85 0
140 47 140 120 0 71 -44 100 -150 100 l-70 0 0 -175z m152 118 c18 -16 24 -68
10 -89 -13 -19 -50 -34 -86 -34 l-36 0 0 70 0 70 47 0 c29 0 53 -6 65 -17z"/>
<path d="M4560 1795 l0 -175 110 0 c103 0 110 1 110 20 0 18 -7 20 -85 20
l-85 0 0 65 0 65 80 0 c73 0 80 2 80 20 0 17 -8 19 -82 22 l-83 3 -3 48 -3 47
90 0 c84 0 91 1 91 20 0 19 -7 20 -110 20 l-110 0 0 -175z"/>
<path d="M5140 1955 c0 -10 11 -15 35 -15 l35 0 0 -135 c0 -126 -1 -135 -21
-145 -12 -7 -37 -9 -60 -5 -35 6 -39 5 -39 -14 0 -44 122 -35 155 12 12 17 15
54 15 169 l0 148 -60 0 c-47 0 -60 -3 -60 -15z"/>
<path d="M5405 1958 c-3 -7 -29 -86 -59 -175 -54 -162 -54 -163 -31 -163 19 0
26 9 40 50 l17 50 67 0 67 0 15 -47 c12 -40 19 -49 41 -51 l27 -3 -53 158
c-30 87 -57 166 -61 176 -8 20 -63 24 -70 5z"/>
<path d="M5620 1795 l0 -175 105 0 c98 0 105 1 105 20 0 18 -7 20 -80 20 l-80
0 0 155 0 155 -25 0 -25 0 0 -175z"/>
<path d="M5850 1955 c0 -9 9 -15 25 -15 l25 0 0 -145 0 -145 -25 0 c-16 0 -25
-6 -25 -15 0 -12 14 -15 70 -15 56 0 70 3 70 15 0 8 -9 15 -20 15 -19 0 -20 7
-20 145 0 138 1 145 20 145 11 0 20 7 20 15 0 12 -14 15 -70 15 -56 0 -70 -3
-70 -15z"/>
<path d="M6290 1950 c0 -18 7 -20 60 -20 l60 0 0 -155 c0 -148 1 -155 20 -155
19 0 20 7 20 155 l0 156 67 -3 67 -3 48 -80 c45 -76 48 -84 48 -152 0 -66 2
-73 20 -73 18 0 20 7 20 76 0 75 1 77 60 175 57 95 58 99 35 99 -18 0 -32 -14
-61 -62 -58 -98 -52 -98 -101 -13 l-44 75 -159 0 c-153 0 -160 -1 -160 -20z"/>
<path d="M7160 1950 c0 -18 7 -20 85 -20 47 0 85 -3 85 -6 0 -3 -40 -63 -90
-134 -49 -71 -90 -138 -90 -149 0 -20 5 -21 125 -21 118 0 125 1 125 20 0 18
-8 20 -98 22 l-99 3 93 130 c52 72 94 140 94 153 0 22 -2 22 -115 22 -108 0
-115 -1 -115 -20z"/>
<path d="M7441 1795 l2 -175 23 0 c23 0 23 0 26 148 l3 147 75 -147 c69 -136
77 -148 103 -148 l27 0 0 175 c0 168 -1 175 -20 175 -19 0 -20 -7 -20 -130 0
-71 -4 -130 -8 -130 -4 0 -37 59 -72 130 l-64 130 -39 0 -38 0 2 -175z"/>
<path d="M8480 1795 l0 -175 110 0 c103 0 110 1 110 20 0 18 -7 20 -85 20
l-85 0 0 65 0 65 80 0 c73 0 80 2 80 20 0 18 -7 20 -80 20 l-80 0 0 50 0 50
85 0 c78 0 85 2 85 20 0 19 -7 20 -110 20 l-110 0 0 -175z"/>
<path d="M8760 1795 c0 -168 1 -175 20 -175 18 0 20 7 20 70 l0 70 29 0 c25 0
39 -11 83 -69 46 -61 57 -70 86 -70 l33 -1 -61 74 -61 73 36 36 c46 46 49 95
6 138 -28 27 -34 29 -110 29 l-81 0 0 -175z m154 119 c22 -22 20 -70 -4 -94
-14 -14 -33 -20 -65 -20 l-45 0 0 65 0 65 49 0 c32 0 55 -6 65 -16z"/>
<path d="M9076 1799 c24 -94 44 -173 44 -175 0 -2 13 -4 28 -4 28 0 28 1 61
143 19 78 36 135 39 127 3 -8 20 -71 37 -140 31 -124 32 -125 60 -125 29 0 29
0 65 145 20 80 40 157 43 173 7 24 5 27 -16 27 -23 0 -26 -9 -57 -140 -19 -77
-36 -137 -39 -134 -3 3 -20 65 -36 137 -29 126 -32 132 -57 135 -26 3 -27 1
-60 -137 -18 -77 -36 -137 -39 -133 -4 4 -16 50 -28 102 -38 167 -39 170 -66
170 l-23 0 44 -171z"/>
<path d="M9490 1956 c0 -8 10 -16 23 -18 22 -3 22 -5 20 -143 -2 -133 -3 -140
-23 -143 -11 -2 -20 -10 -20 -18 0 -11 16 -14 70 -14 56 0 70 3 70 15 0 9 -9
15 -25 15 l-25 0 0 145 0 145 25 0 c16 0 25 6 25 15 0 12 -14 15 -70 15 -54 0
-70 -3 -70 -14z"/>
<path d="M10406 1802 c-31 -92 -56 -171 -56 -175 0 -5 10 -7 22 -5 17 2 26 15
37 51 l15 47 67 0 67 0 17 -50 c14 -42 20 -50 42 -50 16 0 23 5 20 13 -2 6
-28 85 -58 175 l-54 162 -31 0 -32 0 -56 -168z"/>
<path d="M10680 1795 c0 -168 1 -175 20 -175 19 0 20 7 20 147 0 80 3 143 7
139 4 -4 24 -46 44 -94 51 -120 63 -119 114 3 37 88 59 119 54 78 -1 -10 -1
-75 0 -145 1 -121 2 -128 21 -128 19 0 20 7 20 175 l0 175 -34 0 c-33 0 -34
-2 -71 -90 -21 -49 -41 -90 -45 -90 -4 0 -25 40 -46 90 -38 86 -40 90 -71 90
l-33 0 0 -175z"/>
<path d="M11700 1795 c0 -168 1 -175 20 -175 18 0 20 7 20 85 l0 85 85 0 85 0
0 -85 c0 -78 2 -85 20 -85 19 0 20 7 20 175 0 167 -1 175 -20 175 -17 0 -19
-8 -22 -67 l-3 -68 -80 0 -80 0 -3 68 c-3 59 -5 67 -22 67 -19 0 -20 -8 -20
-175z"/>
<path d="M12375 1795 l0 -175 79 0 c61 0 86 5 116 21 113 64 111 258 -3 312
-23 11 -61 17 -114 17 l-78 0 0 -175z m190 102 c90 -90 31 -237 -96 -237 l-49
0 0 135 0 135 56 0 c50 0 60 -4 89 -33z"/>
<path d="M13660 1956 c0 -10 13 -16 38 -18 l37 -3 0 -127 c0 -146 -4 -153 -71
-152 -36 1 -44 -2 -44 -17 0 -42 105 -36 140 8 18 23 20 40 20 174 l0 149 -60
0 c-46 0 -60 -3 -60 -14z"/>
<path d="M13876 1803 c-31 -92 -56 -172 -56 -176 0 -5 10 -7 22 -5 17 2 26 15
37 51 l15 47 67 0 67 0 17 -50 c14 -42 21 -50 41 -50 13 0 24 3 23 8 0 4 -26
81 -57 172 -57 163 -58 165 -89 168 l-31 3 -56 -168z"/>
<path d="M14150 1795 c0 -168 1 -175 20 -175 18 0 20 7 20 65 l0 65 41 0 c102
0 163 76 129 164 -14 38 -59 56 -140 56 l-70 0 0 -175z m152 118 c10 -9 18
-30 18 -49 0 -43 -38 -74 -91 -74 l-39 0 0 70 0 70 47 0 c29 0 53 -6 65 -17z"/>
<path d="M14760 1796 l0 -176 25 0 25 0 0 148 0 147 78 -147 c71 -136 79 -148
104 -148 l28 0 0 175 0 175 -26 0 -25 0 3 -130 c2 -72 1 -130 -2 -130 -3 0
-34 57 -70 128 -65 126 -65 127 -102 130 l-38 3 0 -175z"/>
<path d="M16130 1795 l0 -175 25 0 c25 0 25 1 25 85 l0 85 80 0 80 0 0 -85 c0
-84 0 -85 25 -85 l25 0 0 175 0 175 -25 0 c-24 0 -25 -2 -25 -70 l0 -70 -80 0
-80 0 0 70 c0 68 -1 70 -25 70 l-25 0 0 -175z"/>
</g>
</svg>
