<?xml version="1.0" standalone="no"?>
<!DOCTYPE svg PUBLIC "-//W3C//DTD SVG 20010904//EN"
 "http://www.w3.org/TR/2001/REC-SVG-20010904/DTD/svg10.dtd">
<svg version="1.0" xmlns="http://www.w3.org/2000/svg"
 width="945.000000pt" height="945.000000pt" viewBox="0 0 945.000000 945.000000"
 preserveAspectRatio="xMidYMid meet">

<g transform="translate(0.000000,945.000000) scale(0.100000,-0.100000)"
fill="#fafafa" stroke="none">
<path d="M8005 7165 c-111 -20 -220 -52 -339 -101 -110 -45 -295 -138 -349
-177 -25 -17 -38 -19 -102 -13 -191 17 -646 109 -971 195 -248 65 -471 86
-829 78 -344 -9 -602 -36 -911 -97 -221 -44 -357 -87 -619 -197 -398 -167
-590 -220 -972 -268 -274 -34 -410 -59 -613 -110 -386 -97 -720 -237 -930
-390 -41 -30 -71 -55 -67 -55 3 0 46 18 94 41 398 185 845 302 1388 361 169
19 257 22 575 22 339 0 471 -6 664 -31 36 -4 47 -3 42 6 -4 6 -9 23 -12 37 -6
35 46 86 114 110 29 10 52 22 52 25 0 12 -161 21 -323 17 -86 -1 -157 -1 -157
2 1 9 191 89 311 131 157 55 347 104 519 133 472 80 1028 60 1509 -54 239 -57
326 -90 239 -90 -50 0 -295 -38 -463 -71 -155 -30 -527 -120 -521 -126 1 -2
119 10 262 26 719 83 1425 142 2024 172 129 6 237 13 239 15 2 2 6 23 8 46 13
124 99 264 217 350 35 25 36 28 15 27 -13 0 -55 -7 -94 -14z"/>
<path d="M7665 6574 c-22 -2 -123 -8 -225 -14 -792 -46 -1962 -163 -3215 -321
-755 -95 -785 -84 242 -84 592 0 978 -5 1133 -13 358 -19 667 -40 857 -58
l172 -16 53 47 c189 171 555 323 1093 453 l40 10 -55 -1 c-30 0 -73 -2 -95 -3z"/>
<path fill="#ED1C25" d="M1430 5774 c-88 -38 -149 -141 -136 -230 11 -87 56 -147 136 -183 42
-19 65 -21 310 -21 159 0 280 4 304 11 23 6 57 29 85 57 90 90 95 213 13 304
-68 75 -80 78 -397 77 -227 0 -287 -3 -315 -15z"/>
<path d="M2800 5779 c-40 -16 -87 -56 -112 -96 l-23 -38 -5 -745 c-5 -690 -6
-748 -23 -785 -23 -51 -61 -91 -112 -118 -38 -21 -52 -22 -325 -22 -274 0
-287 1 -326 22 -83 44 -110 92 -133 232 -23 144 -142 224 -282 191 -66 -16
-138 -84 -157 -146 -17 -58 -16 -344 2 -411 39 -146 135 -254 280 -316 50 -22
63 -22 585 -25 346 -2 552 1 584 8 163 35 309 178 346 341 15 62 15 1728 0
1766 -35 94 -120 153 -218 152 -31 0 -67 -5 -81 -10z"/>
<path d="M3695 5771 c-50 -22 -101 -79 -115 -128 -8 -27 -10 -328 -8 -1010 l3
-971 30 -44 c78 -112 239 -130 340 -37 78 72 75 29 75 946 l0 814 373 -3 c362
-3 373 -4 414 -25 51 -27 96 -82 112 -132 7 -27 11 -191 11 -534 l0 -495 -28
-53 c-37 -71 -88 -106 -172 -120 -109 -18 -140 -29 -180 -65 -52 -48 -74 -106
-68 -188 5 -86 41 -140 117 -178 53 -27 59 -28 227 -28 143 0 183 3 235 20
138 42 241 138 296 276 l28 69 0 765 0 765 -23 68 c-49 141 -162 249 -304 292
-44 13 -143 15 -687 15 -594 0 -639 -2 -676 -19z"/>
<path d="M5998 5774 c-53 -16 -99 -58 -128 -115 -19 -37 -20 -64 -20 -1009 0
-874 2 -974 16 -1003 50 -98 151 -148 254 -126 68 15 122 57 154 120 l26 53 0
653 c0 359 3 653 7 653 3 0 126 -120 272 -266 174 -174 280 -273 306 -285 55
-25 135 -24 188 2 51 26 388 357 423 415 88 148 -22 336 -196 336 -81 0 -116
-20 -227 -129 l-95 -95 -397 395 c-368 366 -399 395 -443 406 -59 14 -81 13
-140 -5z"/>
<path fill="#ED1C25" d="M7834 5779 c-50 -12 -118 -68 -144 -120 -20 -38 -20 -59 -18 -1017
l3 -978 28 -42 c43 -65 97 -96 177 -100 52 -3 75 0 106 16 51 26 88 64 114
116 20 43 20 51 18 1008 l-3 965 -30 49 c-53 85 -153 126 -251 103z"/>
<path d="M1504 3047 c-129 -33 -194 -113 -194 -238 0 -136 68 -198 284 -258
130 -36 172 -60 185 -106 32 -117 -118 -206 -245 -145 -34 17 -49 33 -77 88
-48 91 -67 108 -109 96 -45 -13 -63 -48 -54 -107 15 -100 111 -193 221 -215
244 -49 435 67 435 266 0 149 -67 211 -302 278 -134 38 -161 52 -178 94 -31
74 45 135 158 128 72 -5 80 -11 145 -113 37 -58 68 -68 109 -36 71 57 19 190
-98 247 -65 32 -197 42 -280 21z"/>
<path d="M4557 3040 c-39 -31 -41 -61 -8 -158 106 -316 226 -652 242 -678 38
-62 130 -71 179 -17 17 19 51 102 99 238 40 116 97 279 127 364 62 176 67 219
28 250 -35 27 -75 27 -101 -1 -14 -15 -60 -143 -124 -345 -57 -178 -105 -323
-108 -323 -3 0 -23 53 -43 118 -120 383 -172 536 -189 553 -25 25 -70 24 -102
-1z"/>
<path d="M5722 3053 c-7 -3 -19 -18 -27 -33 -22 -43 -22 -787 0 -829 24 -48
77 -55 122 -17 l28 24 3 374 c2 205 0 388 -3 407 -11 61 -69 96 -123 74z"/>
<path d="M6580 3044 c-101 -27 -186 -99 -240 -204 -23 -45 -50 -174 -50 -237
1 -131 55 -274 133 -351 79 -78 129 -96 262 -97 101 0 115 2 167 28 106 52
178 152 180 249 1 42 -3 54 -21 69 -24 19 -67 25 -87 11 -6 -4 -28 -42 -48
-84 -31 -66 -44 -82 -84 -105 -64 -38 -147 -39 -212 -3 -160 89 -153 487 10
570 111 57 225 19 282 -94 31 -63 47 -76 89 -76 90 0 93 129 5 222 -99 104
-240 141 -386 102z"/>
<path d="M7540 3037 c-60 -15 -60 -14 -60 -434 l0 -382 24 -28 24 -28 277 0
277 0 19 24 c25 31 24 73 -2 97 -19 17 -41 19 -235 22 l-214 3 0 125 0 124
193 0 c175 0 196 2 210 18 22 25 21 75 -1 95 -16 15 -46 17 -210 17 l-192 0 0
110 0 110 209 0 c173 0 212 3 225 15 23 24 28 52 14 82 l-13 28 -258 5 c-141
3 -270 2 -287 -3z"/>
<path d="M2412 3017 c-22 -23 -22 -27 -22 -413 l0 -391 26 -24 c25 -24 27 -24
278 -27 282 -4 319 2 332 53 9 35 -10 73 -42 85 -14 6 -117 10 -230 10 l-205
0 3 123 3 122 194 3 c164 2 198 5 213 19 22 19 23 62 4 89 -13 17 -31 19 -213
24 l-198 5 0 105 0 105 218 5 c238 5 237 5 237 67 0 62 -2 63 -304 63 -272 0
-273 0 -294 -23z"/>
<path d="M3492 3033 c-7 -3 -19 -18 -27 -33 -12 -24 -15 -92 -15 -399 0 -374
3 -411 38 -437 21 -17 72 -17 93 -1 34 26 39 55 39 216 l0 161 50 0 c104 0
129 -24 251 -237 75 -131 96 -153 144 -153 60 1 91 50 70 111 -35 98 -120 230
-175 271 -17 12 -30 24 -30 28 0 3 23 13 51 23 119 43 172 156 137 295 -15 59
-85 132 -144 150 -41 12 -454 17 -482 5z m416 -143 c55 -36 66 -129 21 -176
-32 -34 -78 -44 -201 -44 l-108 0 0 121 0 121 133 -4 c94 -2 138 -8 155 -18z"/>
</g>
</svg>
